# xmcd CD database file
#
# Track frame offsets:
#	150
#	25808
#	51038
#	82638
#	100720
#	124052
#	146837
#	173274
#	195268
#	216028
#	232938
#	253864
#	279131
#
# Disc length: 4033 seconds
#
# Revision: 0
# Processed by: cddbd v1.5.2PL0 Copyright (c) Steve Scherf et al.
# Submitted via: CDex 1.51
#
DISCID=990fbf0d
DTITLE=Rachel Gould, Chet Baker - All Blues
DYEAR=1979
DGENRE=Jazz
TTITLE0=ALL BLUES
TTITLE1=MY FUNNY VALENTINE
TTITLE2=BAUBLES, BANGLES AND BEADS
TTITLE3=STRAIGHT NO CHASER
TTITLE4=ROUND MIDNIGHT
TTITLE5=I'VE GOT YOU UNDER MY SKIN
TTITLE6=PHILL'S BOSSA
TTITLE7=SECRET LOVE
TTITLE8=WHAT'S NEW
TTITLE9=DARN THAT DREAM
TTITLE10=BLUES FOR INGE
TTITLE11=ROUND MIDNIGHT
TTITLE12=MY FUNNY VALENTINE
EXTD=YEAR: 1979
EXTT0=
EXTT1=
EXTT2=
EXTT3=
EXTT4=
EXTT5=
EXTT6=
EXTT7=
EXTT8=
EXTT9=
EXTT10=
EXTT11=
EXTT12=
PLAYORDER=
